HIERARCHY
ROOT root
{
	OFFSET 0.000000 0.000000 0.000000
	CHANNELS 6 Xposition Yposition Zposition Zrotation Yrotation Xrotation
	JOINT lhip
	{
		OFFSET 0.058581 -0.082280 -0.017664
		CHANNELS 3 Zrotation Yrotation Xrotation
		JOINT lknee
		{
			OFFSET 0.043451 -0.386469 0.008037
			CHANNELS 3 Zrotation Yrotation Xrotation
			JOINT lankle
			{
				OFFSET -0.014790 -0.426874 -0.037428
				CHANNELS 3 Zrotation Yrotation Xrotation
				JOINT ltoe
				{
					OFFSET 0.041054 -0.060286 0.122042
					CHANNELS 3 Zrotation Yrotation Xrotation
					End Site
					{
						OFFSET 0.000000 0.000000 0.000000
					}
				}
			}
		}
	}
	JOINT rhip
	{
		OFFSET -0.060310 -0.090513 -0.013543
		CHANNELS 3 Zrotation Yrotation Xrotation
		JOINT rknee
		{
			OFFSET -0.043257 -0.383688 -0.004843
			CHANNELS 3 Zrotation Yrotation Xrotation
			JOINT rankle
			{
				OFFSET 0.019056 -0.420046 -0.034562
				CHANNELS 3 Zrotation Yrotation Xrotation
				JOINT rtoe
				{
					OFFSET -0.034840 -0.062106 0.130323
					CHANNELS 3 Zrotation Yrotation Xrotation
					End Site
					{
						OFFSET 0.000000 0.000000 0.000000
					}
				}
			}
		}
	}
	JOINT lowerback
	{
		OFFSET 0.004439 0.124404 -0.038385
		CHANNELS 3 Zrotation Yrotation Xrotation
		JOINT upperback
		{
			OFFSET 0.004488 0.137956 0.026820
			CHANNELS 3 Zrotation Yrotation Xrotation
			JOINT chest
			{
				OFFSET -0.002265 0.056032 0.002855
				CHANNELS 3 Zrotation Yrotation Xrotation
				JOINT lowerneck
				{
					OFFSET -0.013390 0.211636 -0.033468
					CHANNELS 3 Zrotation Yrotation Xrotation
					JOINT upperneck
					{
						OFFSET 0.010113 0.088937 0.050410
						CHANNELS 3 Zrotation Yrotation Xrotation
						End Site
						{
							OFFSET 0.000000 0.000000 0.000000
						}
					}
				}
				JOINT lclavicle
				{
					OFFSET 0.071702 0.114000 -0.018898
					CHANNELS 3 Zrotation Yrotation Xrotation
					JOINT lshoulder
					{
						OFFSET 0.122921 0.045205 -0.019046
						CHANNELS 3 Zrotation Yrotation Xrotation
						JOINT lelbow
						{
							OFFSET 0.255332 -0.015649 -0.022946
							CHANNELS 3 Zrotation Yrotation Xrotation
							JOINT lwrist
							{
								OFFSET 0.265709 0.012698 -0.007375
								CHANNELS 3 Zrotation Yrotation Xrotation
								End Site
								{
									OFFSET 0.000000 0.000000 0.000000
								}
							}
						}
					}
				}
				JOINT rclavicle
				{
					OFFSET -0.082954 0.112472 -0.023707
					CHANNELS 3 Zrotation Yrotation Xrotation
					JOINT rshoulder
					{
						OFFSET -0.113228 0.046853 -0.008472
						CHANNELS 3 Zrotation Yrotation Xrotation
						JOINT relbow
						{
							OFFSET -0.260127 -0.014369 -0.031269
							CHANNELS 3 Zrotation Yrotation Xrotation
							JOINT rwrist
							{
								OFFSET -0.269108 0.006794 -0.006027
								CHANNELS 3 Zrotation Yrotation Xrotation
								End Site
								{
									OFFSET 0.000000 0.000000 0.000000
								}
							}
						}
					}
				}
			}
		}
	}
}
MOTION
Frames: 16
Frame Time: 0.033333
2.658843 0.116620 1.083021 -87.137710 1.701095 89.128751 0.982161 1.897098 1.905079 -3.102303 -11.643521 8.115300 5.488372 5.998749 -12.011351 0.000000 -0.000000 0.000000 4.301779 -3.616477 -0.372123 -0.481809 2.234726 13.109283 1.108607 -13.128726 -13.551530 0.000000 -0.000000 0.000000 -1.501490 1.201276 3.862461 0.527947 -2.134623 -1.691322 -0.442416 -2.790683 1.955785 1.093502 -3.760822 6.797614 -5.263558 2.793269 12.235117 -23.132825 10.397488 1.726585 -53.233818 -2.961558 7.152925 12.063579 -38.005242 6.402514 23.886110 0.835648 -15.484973 15.261510 -2.636869 -8.713308 23.651574 21.347995 -21.788182 -37.182234 5.731510 -77.281233 -12.345856 2.067700 -55.631599 
2.658509 0.116711 1.082895 -86.951509 1.742925 89.324025 1.069048 1.724879 1.718773 -3.159708 -11.746682 8.086836 5.256733 6.049339 -12.069768 0.000000 -0.000000 0.000000 4.339087 -3.604392 -0.492312 -0.441062 2.071876 13.036663 1.199143 -12.970121 -13.765636 0.000000 -0.000000 0.000000 -1.397340 1.101074 3.954954 0.573708 -2.091786 -2.061896 -0.516601 -3.003025 2.562254 1.206136 -3.104020 5.974309 -5.348868 3.251102 12.431336 -23.241359 10.516095 1.243318 -53.315638 -2.900530 7.547573 12.091660 -37.919002 6.437294 26.368100 1.630113 -14.816258 15.604291 -2.974167 -9.365258 23.846778 21.630093 -21.197885 -38.176305 6.223279 -77.164197 -12.565728 1.262847 -56.140371 
2.658093 0.116872 1.082668 -86.910410 1.752748 89.440176 1.099857 1.789553 1.604847 -3.193262 -12.029832 8.132205 5.257383 6.225713 -12.111098 0.000000 -0.000000 0.000000 4.363979 -3.698726 -0.614295 -0.343162 2.412830 13.119056 1.135769 -13.059690 -13.977695 0.000000 -0.000000 0.000000 -1.411260 1.113163 4.062944 0.656688 -2.179237 -2.254565 -0.445217 -2.996104 2.817922 0.906261 -3.159148 5.746441 -5.075445 3.720692 12.494042 -23.164115 10.296775 1.061016 -53.679859 -2.693250 7.758432 11.956711 -37.443606 6.164766 31.582965 2.828085 -14.391119 15.519035 -2.962394 -9.459037 24.220353 21.262687 -20.805133 -39.353339 7.010978 -77.229543 -13.727341 0.649484 -55.850205 
2.657502 0.117845 1.081715 -86.946778 1.667118 89.684670 1.197437 1.706237 1.532167 -3.363630 -11.922248 7.866077 5.388026 6.158566 -12.176539 0.000000 -0.000000 0.000000 4.363007 -3.521612 -1.115901 -0.182935 2.669281 13.687080 0.869326 -13.226165 -14.506498 0.000000 -0.000000 0.000000 -1.767105 1.157895 3.749860 0.891444 -2.224717 -1.687970 -0.303015 -3.052726 2.720640 1.141485 -2.713918 5.439234 -4.989681 3.746649 12.651935 -23.109211 10.089889 1.349156 -54.072813 -2.815554 7.495888 12.161643 -37.033581 6.214914 30.482938 2.882731 -14.228294 15.831591 -3.059504 -9.267642 24.160842 21.130392 -20.707427 -40.851789 7.822146 -77.168626 -13.098083 0.829203 -55.391371 
2.656932 0.118643 1.081434 -86.967156 1.580894 89.822108 1.186143 1.738086 1.417839 -3.416270 -12.028704 7.915090 5.374423 6.141107 -12.319803 0.000000 -0.000000 0.000000 4.318166 -3.474567 -1.521371 -0.114036 2.659469 14.264336 0.779176 -13.215852 -14.788356 0.000000 -0.000000 0.000000 -1.862699 1.068590 3.939903 0.936359 -2.273118 -1.764807 -0.277111 -3.060024 2.791687 1.171670 -2.385975 5.257800 -5.005702 4.036198 12.493961 -23.218819 10.175031 1.175308 -54.006095 -2.652233 7.431510 11.940814 -36.942990 6.455458 30.188532 3.058856 -14.580666 16.062325 -3.328666 -9.520950 24.376191 21.138906 -20.422203 -42.027747 8.451234 -77.140456 -12.469302 1.126266 -54.741624 
2.656457 0.120247 1.080531 -87.014790 1.419364 90.024294 1.189832 1.793748 1.185926 -3.557955 -12.042873 8.009299 5.508040 6.176562 -12.534411 0.000000 -0.000000 0.000000 4.277987 -3.230945 -2.243540 0.009153 2.671791 15.345904 0.698401 -13.358702 -15.473936 0.000000 -0.000000 0.000000 -2.134174 0.954538 4.282587 1.067125 -2.344219 -1.936596 -0.223954 -2.964827 2.750914 1.268421 -2.296152 5.206627 -4.820341 3.898157 12.525566 -23.045564 10.147355 1.171595 -54.206486 -2.578733 7.392506 11.615264 -36.692001 6.835475 30.278189 2.991901 -14.807497 16.149638 -3.608457 -9.585525 24.868088 20.748094 -19.979035 -43.827175 9.355796 -77.081904 -11.736049 1.442327 -53.931563 
2.654769 0.122728 1.079148 -87.500731 1.293551 90.006113 1.381559 2.069211 1.513187 -3.741608 -11.884775 7.715110 5.638771 6.041378 -12.560906 0.000000 -0.000000 0.000000 4.364966 -2.723976 -2.443923 0.080183 2.965442 15.997699 0.480862 -13.428973 -15.973650 0.000000 -0.000000 0.000000 -2.628197 0.860748 3.248758 1.458271 -2.144416 0.280877 -0.123823 -3.031520 2.578606 1.361473 -1.704994 5.022208 -4.911668 3.904719 12.089134 -23.349083 9.685746 1.493206 -54.093910 -2.513049 6.859801 12.022594 -37.509755 6.470145 27.991227 2.574681 -14.717471 16.394955 -3.510748 -9.125568 24.846868 20.544971 -20.173576 -46.009637 10.346235 -77.012419 -9.938618 2.316433 -52.827021 
2.653419 0.124649 1.078480 -86.957001 1.057171 90.615959 1.253724 1.944443 0.741296 -3.749385 -12.052144 7.992127 5.551390 5.826762 -12.582878 0.000000 -0.000000 0.000000 4.226085 -2.740130 -3.089846 0.226744 2.625444 16.244901 0.454069 -13.496641 -16.308673 0.000000 -0.000000 0.000000 -2.594012 0.655144 3.832818 1.487987 -2.553970 -0.806198 -0.201015 -3.161324 2.734544 1.275339 -1.596808 5.105859 -4.687259 4.031883 12.065998 -23.406875 9.792969 1.429980 -53.955258 -2.069575 6.907589 11.711246 -37.617627 7.389284 25.971740 2.496401 -14.586392 16.797663 -4.247763 -9.502840 25.328982 19.547903 -19.382420 -48.788295 11.967743 -76.716455 -7.151135 3.231356 -51.903485 
2.650668 0.127218 1.077889 -86.958088 0.944930 90.715618 1.308570 1.663674 0.696829 -3.752260 -11.717644 8.262585 5.659676 5.778411 -12.791166 0.000000 -0.000000 0.000000 4.256551 -2.803680 -3.115126 0.237686 2.414009 16.562780 0.318348 -13.248203 -16.756187 0.000000 -0.000000 0.000000 -2.615645 0.686411 4.014267 1.765838 -2.860096 -0.437968 -0.130539 -3.113603 2.635252 1.088297 -1.104138 5.302005 -4.726676 3.856128 12.011894 -23.526341 9.835407 1.414286 -54.055069 -1.861283 6.732194 11.741083 -37.837103 8.107564 23.321645 2.116502 -15.123064 17.352229 -4.964237 -9.351558 25.744097 18.623627 -18.621222 -52.853029 14.738811 -74.947357 -5.673396 4.729355 -49.528785 
2.647356 0.131124 1.077557 -87.240736 0.748564 90.990719 1.224142 1.271935 0.090648 -3.794602 -11.158625 9.334992 5.728575 6.014971 -13.220353 0.000000 -0.000000 0.000000 4.181557 -2.544704 -3.259105 0.352983 2.122580 16.895269 0.263506 -12.900807 -17.282265 0.000000 -0.000000 0.000000 -2.608298 0.768211 3.958286 2.172542 -3.227170 0.135933 -0.196165 -3.067451 2.786974 1.139621 -0.052654 5.520837 -4.840596 3.621405 11.868314 -23.959868 9.999727 1.231418 -53.777679 -1.460511 6.123996 11.885666 -38.566926 8.378222 18.805831 1.188038 -15.229403 18.646516 -5.988518 -9.209933 26.451500 17.124458 -16.899376 -60.171305 19.441835 -74.375144 -3.029636 6.347044 -44.744896 
2.643848 0.134197 1.077423 -88.000902 0.632457 91.420120 1.055290 1.079910 -1.159657 -3.912992 -10.559437 11.443475 6.012488 6.575427 -13.972612 0.000000 -0.000000 0.000000 4.108850 -2.419471 -3.647397 0.511068 2.169655 17.321221 0.125304 -12.384928 -17.593145 0.000000 -0.000000 0.000000 -2.229280 0.740876 4.124292 2.382194 -3.464891 -0.258961 -0.451350 -3.002936 3.006268 1.107461 0.690437 5.911766 -4.989016 3.831972 12.011278 -24.336696 10.602965 0.938470 -53.415075 -0.752197 5.302105 11.497042 -39.194566 9.182185 15.588362 0.884759 -15.328370 19.640913 -7.088667 -8.944879 27.986287 16.079839 -14.525432 -67.384437 24.634641 -74.303198 -1.977271 7.162959 -39.968254 
2.640311 0.138214 1.076667 -89.422682 0.507338 91.478986 0.874597 0.773487 -2.369225 -4.068250 -9.248326 14.389297 6.147076 7.235096 -14.753840 0.000000 -0.000000 0.000000 4.070937 -2.046984 -3.794896 0.593937 2.350170 17.960728 -0.141305 -11.760177 -18.103066 0.000000 -0.000000 0.000000 -1.994934 0.792843 4.505477 2.700980 -3.701895 -0.118079 -0.695601 -2.839389 3.204818 1.428320 2.097850 5.957417 -5.389465 3.891948 12.257598 -24.776017 11.156408 0.724860 -53.075093 -0.188132 4.145053 11.226326 -39.700133 10.001133 10.387259 -0.084369 -15.304879 20.846236 -8.035533 -8.585489 30.050040 15.903614 -11.774649 -75.579954 29.990776 -75.000139 -0.402094 8.366111 -34.720359 
2.637775 0.142827 1.075338 -91.128766 0.540882 91.375408 0.820420 0.132704 -4.052787 -4.028126 -7.107881 18.384381 5.907109 7.780778 -15.127950 0.000000 -0.000000 0.000000 4.206774 -1.380840 -4.061117 0.742856 2.527306 18.902924 -0.489686 -11.057572 -18.549395 0.000000 -0.000000 0.000000 -1.862704 1.192866 5.406133 3.313878 -3.936803 0.127727 -0.719984 -2.746021 3.291482 1.863130 4.000922 5.652833 -6.028911 3.653969 12.728735 -25.225253 11.352814 0.519184 -53.248265 0.016226 2.967089 11.152472 -39.738895 10.718267 3.652518 -1.580915 -15.153024 22.347303 -8.557217 -8.118340 32.217471 16.269586 -8.766368 -84.196707 34.911885 -76.459698 0.894772 9.339984 -28.116641 
2.635041 0.148219 1.074312 -93.007688 0.489180 91.027397 0.967948 -0.505227 -6.591508 -4.466153 -5.029016 24.497943 4.971197 7.944769 -14.718385 0.000000 -0.000000 0.000000 4.304155 -0.975899 -3.951148 0.630815 2.642483 19.703170 -0.979929 -9.893755 -19.028312 0.000000 -0.000000 0.000000 -1.995698 1.866617 6.280607 3.961659 -4.477956 1.185185 -0.640089 -2.439197 3.224917 2.096406 6.121846 5.574662 -6.517478 2.816387 12.849224 -25.447276 10.834582 0.497529 -53.657834 0.125405 2.230196 11.187346 -39.659964 11.254391 -1.281516 -2.679264 -15.301674 24.119894 -8.337826 -7.596209 34.924274 17.009542 -5.665769 -91.980173 39.817897 -77.197268 1.454195 9.597391 -21.080675 
2.632631 0.154025 1.073858 -94.635604 0.729474 90.665961 2.297909 -1.908508 -10.644470 -5.396810 -1.485931 33.165175 2.337199 6.057393 -14.629806 0.000000 -0.000000 0.000000 4.812626 0.967995 -3.214772 0.380624 1.545119 19.641309 -1.098632 -9.194665 -20.039891 0.000000 -0.000000 0.000000 -1.869432 2.416576 7.412902 4.474706 -4.818195 1.937936 -0.476628 -2.193112 3.875002 2.974261 8.619694 3.763162 -7.673879 1.655984 14.170389 -25.292970 10.307108 -0.875689 -54.469261 -0.192401 3.794884 12.424138 -38.376028 5.901963 -8.808460 -4.495894 -10.240035 25.970018 -7.636007 -8.572520 38.914123 17.836888 0.619950 -96.505642 43.310947 -76.408366 1.692869 9.393686 -12.285077 
2.628715 0.158816 1.072971 -95.842697 0.774345 90.179273 3.346109 -3.483084 -14.808955 -7.461636 -0.578266 41.578120 1.947647 5.632789 -11.297416 0.000000 -0.000000 0.000000 4.895903 1.049732 -2.514243 0.669489 1.814343 19.917855 -2.371998 -8.617037 -20.671471 0.000000 -0.000000 0.000000 -1.776785 3.200098 8.398527 4.924483 -5.363958 3.281038 -0.461621 -1.806503 3.780482 2.858524 9.608274 3.074529 -7.545354 0.811350 14.789963 -25.364647 8.820031 -0.456672 -54.832394 -0.374845 4.374731 12.802154 -38.885978 6.396076 -7.655248 -4.659605 -10.151294 27.624355 -5.683285 -7.401267 42.406786 18.376584 3.626823 -96.105829 47.895026 -71.418925 1.134750 9.447602 -6.457178 
